<svg id="icons" enable-background="new 0 0 64 64" height="512" viewBox="0 0 64 64" width="512" xmlns="http://www.w3.org/2000/svg"><g><g><path d="m50 55.5h-36c-.553 0-1-.447-1-1v-51c0-.553.447-1 1-1h29.999c.266 0 .52.105.707.293l6.001 6c.188.187.293.441.293.707v45c0 .553-.447 1-1 1zm-35-2h34v-43.586l-5.415-5.414h-28.585z"/></g><g><g><path d="m6.03 45.513c-.553 0-1.005-.447-1.005-1s.442-1 .994-1h.011c.552 0 1 .447 1 1s-.448 1-1 1z"/></g><g><path d="m5.999 48.513c-3.308-.001-5.999-2.694-5.999-6.001s2.691-5.999 6-5.999 6 2.69 6 5.998c0 3.309-2.692 6.002-6.001 6.002zm.001-10c-2.206 0-4 1.794-4 3.999s1.794 4 3.999 4.001c2.206 0 4.001-1.795 4.001-4.002 0-2.204-1.794-3.998-4-3.998z"/></g><g><path d="m5.999 43.513c-.553 0-1-.448-1-1.001l.001-2c0-.552.448-.999 1-.999h.001c.552 0 .999.448.999 1.001l-.001 2c0 .551-.448.999-1 .999z"/></g><g><path d="m11 43.514c-.552 0-1-.447-1-1 0-.552.447-1 1-1l5-.001c.552 0 1 .447 1 1 0 .552-.447 1-1 1z"/></g></g><g><g><path d="m58.03 33.513c-.553 0-1.005-.447-1.005-1s.442-1 .994-1h.011c.552 0 1 .447 1 1s-.448 1-1 1z"/></g><g><path d="m58.001 36.513c-3.309 0-6.001-2.692-6.001-6.002 0-3.308 2.691-5.998 6-5.998s6 2.691 6 5.999-2.691 6-5.999 6.001zm-.001-10c-2.206 0-4 1.794-4 3.998 0 2.207 1.795 4.002 4.001 4.002 2.205-.001 3.999-1.796 3.999-4.001s-1.794-3.999-4-3.999z"/></g><g><path d="m58.001 31.513c-.552 0-1-.447-1-.999l-.001-2c0-.553.447-1.001.999-1.001h.001c.552 0 1 .447 1 .999l.001 2c0 .552-.447 1.001-1 1.001z"/></g><g><path d="m53 31.514-5-.001c-.553 0-1-.448-1-1 0-.553.448-1 1-1l5 .001c.553 0 1 .448 1 1s-.448 1-1 1z"/></g></g><g><path d="m50 10.5h-6c-.553 0-1-.447-1-1s.447-1 1-1h6c.553 0 1 .447 1 1s-.447 1-1 1z"/></g><g><path d="m44 10.5c-.553 0-1-.447-1-1v-6c0-.553.447-1 1-1s1 .447 1 1v6c0 .553-.447 1-1 1z"/></g><g><path d="m43 27.509h-22c-.553 0-1-.447-1-1s.447-1 1-1h22c.553 0 1 .447 1 1s-.447 1-1 1z"/></g><g><path d="m43 27.509h-22c-.553 0-1-.447-1-1s.447-1 1-1h22c.553 0 1 .447 1 1s-.447 1-1 1z"/></g><g><path d="m43 31.507h-22c-.553 0-1-.447-1-1s.447-1 1-1h22c.553 0 1 .447 1 1s-.447 1-1 1z"/></g><g><path d="m43 35.505h-22c-.553 0-1-.447-1-1s.447-1 1-1h22c.553 0 1 .447 1 1s-.447 1-1 1z"/></g><g><path d="m43 39.503h-22c-.553 0-1-.447-1-1s.447-1 1-1h22c.553 0 1 .447 1 1s-.447 1-1 1z"/></g><g><path d="m43 43.507h-22c-.553 0-1-.447-1-1s.447-1 1-1h22c.553 0 1 .447 1 1s-.447 1-1 1z"/></g><g><path d="m32 47.505h-11c-.553 0-1-.447-1-1s.447-1 1-1h11c.553 0 1 .447 1 1s-.447 1-1 1z"/></g><g><path d="m14 58.5c-.553 0-1-.447-1-1v-3c0-.553.447-1 1-1s1 .447 1 1v3c0 .553-.447 1-1 1z"/></g><g><path d="m50 58.5h-36c-.553 0-1-.447-1-1s.447-1 1-1h36c.553 0 1 .447 1 1s-.447 1-1 1z"/></g><g><path d="m50 58.5c-.553 0-1-.447-1-1v-3c0-.553.447-1 1-1s1 .447 1 1v3c0 .553-.447 1-1 1z"/></g><g><path d="m14 61.5c-.553 0-1-.447-1-1v-3c0-.553.447-1 1-1s1 .447 1 1v3c0 .553-.447 1-1 1z"/></g><g><path d="m50 61.5h-36c-.553 0-1-.447-1-1s.447-1 1-1h36c.553 0 1 .447 1 1s-.447 1-1 1z"/></g><g><path d="m50 61.5c-.553 0-1-.447-1-1v-3c0-.553.447-1 1-1s1 .447 1 1v3c0 .553-.447 1-1 1z"/></g><g><g><path d="m25 16.505c-1.654 0-3-1.346-3-3s1.346-3 3-3 3 1.346 3 3-1.346 3-3 3zm0-4c-.552 0-1 .448-1 1s.448 1 1 1 1-.448 1-1-.448-1-1-1z"/></g><g><path d="m25 12.506c-.553 0-1-.447-1-1v-1.999c0-.553.447-1 1-1s1 .447 1 1v1.999c0 .553-.447 1-1 1z"/></g><g><path d="m21.002 23.504c-.128 0-.257-.024-.381-.075-.511-.211-.754-.796-.544-1.307l2.998-7.268c.211-.512.802-.75 1.306-.543.511.211.754.796.544 1.307l-2.998 7.268c-.159.385-.532.618-.925.618z"/></g><g><path d="m29.002 23.504c-.393 0-.765-.232-.924-.618l-3.002-7.268c-.211-.511.031-1.096.542-1.306.51-.21 1.096.03 1.306.542l3.002 7.268c.211.511-.031 1.096-.542 1.306-.125.051-.254.076-.382.076z"/></g><g><path d="m28.999 19.504h-7.999c-.553 0-1-.447-1-1s.447-1 1-1h7.999c.553 0 1 .447 1 1s-.447 1-1 1z"/></g></g></g></svg>