<?xml version="1.0" encoding="UTF-8"?>
<!DOCTYPE svg PUBLIC "-//W3C//DTD SVG 1.0//EN" "http://www.w3.org/TR/2001/REC-SVG-20010904/DTD/svg10.dtd">
<!-- Creator: CorelDRAW 2019 (64-Bit) -->
<svg xmlns="http://www.w3.org/2000/svg" xml:space="preserve" width="1181px" height="354px" version="1.0" shape-rendering="geometricPrecision" text-rendering="geometricPrecision" image-rendering="optimizeQuality" fill-rule="evenodd" clip-rule="evenodd"
viewBox="0 0 1181 354.3"
 xmlns:xlink="http://www.w3.org/1999/xlink">
 <defs>
  <linearGradient id="id0" gradientUnits="userSpaceOnUse" x1="442.98" y1="177.15" x2="738.02" y2="177.15">
   <stop offset="0" stop-opacity="1" stop-color="#1562AB"/>
   <stop offset="1" stop-opacity="1" stop-color="white"/>
  </linearGradient>
 </defs>
<symbol id="Symbol1" viewBox="442.98 175.97 295.04 2.36">
 <polygon fill="url(#id0)" fill-rule="nonzero" points="442.98,175.97 738.02,175.97 738.02,178.33 442.98,178.33 "/>
</symbol>
 <g id="Layer_x0020_1">
  <metadata id="CorelCorpID_0Corel-Layer"/>
  <path fill="#F4F4F4" d="M1121.12 247.97c-6.83,0 -13.17,2.06 -18.48,5.56l-50.69 -50.92c-0.43,-0.43 -0.9,-0.77 -1.41,-1.06 6.27,-8.26 10,-18.55 10,-29.7 0,-15.87 -7.56,-30 -19.25,-39.01l20.87 -36.68c3.44,1.14 7.09,1.78 10.9,1.78 19.16,0 34.76,-15.59 34.76,-34.76 0,-19.16 -15.6,-34.76 -34.76,-34.76 -19.17,0 -34.76,15.6 -34.76,34.76 0,10.54 4.73,19.98 12.16,26.36l-20.85 36.63c-5.66,-2.27 -11.83,-3.54 -18.29,-3.54 -11.13,0 -21.4,3.72 -29.65,9.96 -0.11,-0.12 -0.18,-0.25 -0.3,-0.36l-28.55 -28.69c1.54,-3.05 2.43,-6.48 2.43,-10.12 0,-12.37 -10.06,-22.44 -22.43,-22.44 -12.37,0 -22.44,10.07 -22.44,22.44 0,12.37 10.07,22.44 22.44,22.44 3.84,0 7.46,-0.98 10.62,-2.68l28.4 28.54c0.11,0.11 0.24,0.19 0.36,0.3 -6.33,8.28 -10.11,18.63 -10.11,29.84 0,9.85 2.93,19.04 7.94,26.74l-46.95 40.7c-5.75,-4.24 -12.84,-6.78 -20.52,-6.78 -19.14,0 -34.71,15.57 -34.71,34.71 0,19.14 15.57,34.71 34.71,34.71 19.14,0 34.71,-15.57 34.71,-34.71 0,-6.6 -1.88,-12.75 -5.09,-18.01l46.64 -40.44c8.68,7.65 20.05,12.3 32.5,12.3 11.33,0 21.77,-3.86 30.1,-10.32 0.28,0.47 0.6,0.93 1,1.33l50.68 50.93c-3.55,5.33 -5.64,11.73 -5.64,18.61 0,18.56 15.11,33.66 33.66,33.66 18.56,0 33.66,-15.1 33.66,-33.66 0,-18.56 -15.1,-33.66 -33.66,-33.66z"/>
  <path fill="#F4F4F4" d="M1130.64 244.83c-6.83,0 -13.17,2.06 -18.48,5.56l-50.69 -50.93c-0.43,-0.43 -0.91,-0.76 -1.41,-1.05 6.27,-8.26 10,-18.55 10,-29.7 0,-15.87 -7.56,-30 -19.26,-39.01l20.88 -36.68c3.43,1.14 7.09,1.78 10.9,1.78 19.16,0 34.75,-15.6 34.75,-34.76 0,-19.17 -15.59,-34.76 -34.75,-34.76 -19.17,0 -34.76,15.6 -34.76,34.76 0,10.54 4.73,19.98 12.16,26.35l-20.85 36.64c-5.67,-2.28 -11.83,-3.54 -18.29,-3.54 -11.13,0 -21.4,3.71 -29.65,9.96 -0.11,-0.12 -0.19,-0.25 -0.3,-0.36l-28.56 -28.7c1.55,-3.04 2.44,-6.47 2.44,-10.11 0,-12.37 -10.06,-22.44 -22.43,-22.44 -12.38,0 -22.44,10.07 -22.44,22.44 0,12.37 10.06,22.43 22.44,22.43 3.83,0 7.45,-0.97 10.61,-2.67l28.41 28.54c0.11,0.11 0.24,0.19 0.36,0.3 -6.33,8.28 -10.11,18.62 -10.11,29.83 0,9.86 2.93,19.04 7.94,26.75l-46.95 40.7c-5.76,-4.24 -12.84,-6.78 -20.52,-6.78 -19.14,0 -34.71,15.57 -34.71,34.71 0,19.14 15.57,34.71 34.71,34.71 19.14,0 34.71,-15.57 34.71,-34.71 0,-6.6 -1.88,-12.75 -5.1,-18.02l46.65 -40.43c8.67,7.64 20.05,12.3 32.5,12.3 11.33,0 21.77,-3.86 30.1,-10.32 0.27,0.47 0.59,0.92 1,1.33l50.68 50.92c-3.55,5.34 -5.64,11.74 -5.64,18.62 0,18.55 15.1,33.66 33.66,33.66 18.56,0 33.66,-15.1 33.66,-33.66 0,-18.56 -15.1,-33.66 -33.66,-33.66z"/>
  <g id="_1766580122304">
   <g>
    <g>
     <path fill="#1864AC" d="M1121.12 247.97c-6.83,0 -13.17,2.06 -18.48,5.56l-50.69 -50.92c-0.43,-0.43 -0.9,-0.77 -1.41,-1.06 6.27,-8.26 10,-18.55 10,-29.7 0,-15.87 -7.56,-30 -19.25,-39.01l20.87 -36.68c3.44,1.14 7.09,1.78 10.9,1.78 19.16,0 34.76,-15.59 34.76,-34.76 0,-19.16 -15.6,-34.76 -34.76,-34.76 -19.17,0 -34.76,15.6 -34.76,34.76 0,10.54 4.73,19.98 12.16,26.36l-20.85 36.63c-5.66,-2.27 -11.83,-3.54 -18.29,-3.54 -11.13,0 -21.4,3.72 -29.65,9.96 -0.11,-0.12 -0.18,-0.25 -0.3,-0.36l-28.55 -28.69c1.54,-3.05 2.43,-6.48 2.43,-10.12 0,-12.37 -10.06,-22.44 -22.43,-22.44 -12.37,0 -22.44,10.07 -22.44,22.44 0,12.37 10.07,22.44 22.44,22.44 3.84,0 7.46,-0.98 10.62,-2.68l28.4 28.54c0.11,0.11 0.24,0.19 0.36,0.3 -6.33,8.28 -10.11,18.63 -10.11,29.84 0,9.85 2.93,19.04 7.94,26.74l-46.95 40.7c-5.75,-4.24 -12.84,-6.78 -20.52,-6.78 -19.14,0 -34.71,15.57 -34.71,34.71 0,19.14 15.57,34.71 34.71,34.71 19.14,0 34.71,-15.57 34.71,-34.71 0,-6.6 -1.88,-12.75 -5.09,-18.01l46.64 -40.44c8.68,7.65 20.05,12.3 32.5,12.3 11.33,0 21.77,-3.86 30.1,-10.32 0.28,0.47 0.6,0.93 1,1.33l50.68 50.93c-3.55,5.33 -5.64,11.73 -5.64,18.61 0,18.56 15.11,33.66 33.66,33.66 18.56,0 33.66,-15.1 33.66,-33.66 0,-18.56 -15.1,-33.66 -33.66,-33.66z"/>
    </g>
   </g>
   <g>
   </g>
   <g>
   </g>
   <g>
   </g>
   <g>
   </g>
   <g>
   </g>
   <g>
   </g>
   <g>
   </g>
   <g>
   </g>
   <g>
   </g>
   <g>
   </g>
   <g>
   </g>
   <g>
   </g>
   <g>
   </g>
   <g>
   </g>
   <g>
   </g>
  </g>
  <path fill="#1864AC" fill-rule="nonzero" d="M110.61 120.1l-49.22 0 0 45.56 49.22 0 0 -18.39 -25.47 0 0 -8.04 35.94 0 0 20.32c0,5.75 -1.03,9.67 -3.08,11.76 -2.07,2.09 -5.97,3.13 -11.68,3.13l-40.65 0c-5.76,0 -9.66,-1.06 -11.69,-3.15 -2.05,-2.11 -3.07,-6.03 -3.07,-11.74l0 -33.11c0,-5.71 1.02,-9.61 3.07,-11.72 2.03,-2.09 5.93,-3.15 11.69,-3.15l40.65 0c5.65,0 9.5,1.02 11.62,3.07 2.09,2.03 3.14,5.73 3.14,11.09l0 1.54 -10.47 2.09 0 -9.26zm36.28 54.34l0 -51.66 52.02 0 0 7.68 -42.27 0 0 13.28 25.46 0 0 7.67 -25.46 0 0 15.47 42.76 0 0 7.56 -52.51 0zm79.31 -7.8l43.12 0 0 -36.18 -43.12 0 0 36.18zm-9.75 -31.6c0,-4.72 0.89,-7.95 2.68,-9.68 1.79,-1.73 5.1,-2.58 9.99,-2.58l37.28 0c4.89,0 8.2,0.85 9.99,2.58 1.79,1.73 2.68,4.96 2.68,9.68l0 27.19c0,4.73 -0.87,7.94 -2.64,9.65 -1.77,1.7 -5.12,2.56 -10.03,2.56l-37.28 0c-4.95,0 -8.3,-0.86 -10.05,-2.54 -1.75,-1.69 -2.62,-4.9 -2.62,-9.67l0 -27.19zm80.63 39.4l30.48 -32.41 -30.95 -30.46 15.11 0 22.03 23.8 20.69 -23.8 13.1 0 -27.68 29.51 33.75 33.36 -15.11 0 -24.99 -26.83 -23.15 26.83 -13.28 0zm195.04 -54.34l-44.46 0 0 17.54 39.59 0c5.6,0 9.44,1.04 11.51,3.09 2.07,2.07 3.11,5.99 3.11,11.74l0 7.06c0,5.81 -1.02,9.75 -3.05,11.8 -2.03,2.07 -5.88,3.11 -11.57,3.11l-36.69 0c-5.69,0 -9.56,-1.04 -11.63,-3.13 -2.06,-2.09 -3.09,-6.01 -3.09,-11.78l0 -1.72 9.75 -2.26 0 10.11 46.78 0 0 -18.88 -39.48 0c-5.7,0 -9.56,-1.03 -11.59,-3.13 -2.01,-2.07 -3.02,-5.99 -3.02,-11.75l0 -5.46c0,-5.75 1.01,-9.67 3.02,-11.74 2.03,-2.09 5.89,-3.13 11.59,-3.13l33.47 0c5.6,0 9.46,1.02 11.59,3.07 2.13,2.03 3.19,5.6 3.19,10.72l0 1.32 -9.02 2.56 0 -9.14zm76.37 10.24l-29.49 0 0 16.32 29.49 0c2.19,0 3.71,-0.37 4.57,-1.1 0.85,-0.73 1.27,-2.01 1.27,-3.79l0 -6.54c0,-1.79 -0.42,-3.07 -1.25,-3.8 -0.84,-0.73 -2.36,-1.09 -4.59,-1.09zm-39.23 44.1l0 -51.66 43.65 0c4,0 6.89,0.77 8.65,2.32 1.77,1.54 2.64,4.1 2.64,7.67l0 11.57c0,3.48 -0.87,6.02 -2.64,7.56 -1.76,1.54 -4.65,2.31 -8.65,2.31l-33.91 0 0 20.23 -9.74 0zm59.35 0l29.85 -51.66 8.91 0 30.56 51.66 -10.58 0 -6.72 -12.07 -35.68 0 -6.6 12.07 -9.74 0zm20.44 -19.5l27.42 0 -13.73 -24.58 -13.69 24.58zm82.54 -24.48l0 43.98 -9.75 0 0 -43.98 -24.36 0 0 -7.68 58.6 0 0 7.68 -24.49 0zm48.59 43.98l-9.75 0 0 -51.54 9.75 0 0 51.54zm15.23 0l29.85 -51.66 8.91 0 30.56 51.66 -10.58 0 -6.72 -12.07 -35.68 0 -6.6 12.07 -9.74 0zm20.44 -19.5l27.41 0 -13.72 -24.58 -13.69 24.58zm64.35 19.5l0 -51.66 9.74 0 0 43.86 40.21 0 0 7.8 -49.95 0z"/>
  <use transform="scale(2.92411 2.92411)" x="11.13" y="74" width="295.04" height="2.36" xlink:href="#Symbol1"/>
 </g>
</svg>
