<?xml version="1.0" encoding="UTF-8"?>
<!DOCTYPE svg PUBLIC "-//W3C//DTD SVG 1.0//EN" "http://www.w3.org/TR/2001/REC-SVG-20010904/DTD/svg10.dtd">
<!-- Creator: CorelDRAW 2019 (64-Bit) -->
<svg xmlns="http://www.w3.org/2000/svg" xml:space="preserve" width="1181px" height="354px" version="1.0" shape-rendering="geometricPrecision" text-rendering="geometricPrecision" image-rendering="optimizeQuality" fill-rule="evenodd" clip-rule="evenodd"
viewBox="0 0 1181 354.3"
 xmlns:xlink="http://www.w3.org/1999/xlink">
 <defs>
  <linearGradient id="id0" gradientUnits="userSpaceOnUse" x1="442.98" y1="177.15" x2="738.02" y2="177.15">
   <stop offset="0" stop-opacity="1" stop-color="#1562AB"/>
   <stop offset="1" stop-opacity="1" stop-color="white"/>
  </linearGradient>
 </defs>
<symbol id="Symbol1" viewBox="442.98 175.97 295.04 2.36">
 <polygon fill="url(#id0)" fill-rule="nonzero" points="442.98,175.97 738.02,175.97 738.02,178.33 442.98,178.33 "/>
</symbol>
 <g id="Layer_x0020_1">
  <metadata id="CorelCorpID_0Corel-Layer"/>
  <path fill="#1864AC" d="M1111.34 246.45c-6.51,0 -12.56,1.96 -17.62,5.3l-48.31 -48.54c-0.41,-0.41 -0.87,-0.72 -1.34,-1 5.97,-7.88 9.53,-17.68 9.53,-28.3 0,-15.13 -7.21,-28.6 -18.36,-37.19l19.9 -34.95c3.27,1.08 6.76,1.69 10.39,1.69 18.26,0 33.12,-14.86 33.12,-33.13 0,-18.27 -14.86,-33.13 -33.12,-33.13 -18.27,0 -33.13,14.87 -33.13,33.13 0,10.05 4.51,19.04 11.59,25.12l-19.88 34.91c-5.39,-2.16 -11.27,-3.37 -17.43,-3.37 -10.6,0 -20.39,3.54 -28.26,9.5 -0.1,-0.12 -0.17,-0.24 -0.28,-0.35l-27.22 -27.35c1.48,-2.9 2.33,-6.17 2.33,-9.64 0,-11.79 -9.6,-21.38 -21.39,-21.38 -11.79,0 -21.38,9.59 -21.38,21.38 0,11.79 9.59,21.39 21.38,21.39 3.66,0 7.11,-0.93 10.12,-2.56l27.08 27.21c0.1,0.1 0.23,0.18 0.34,0.28 -6.04,7.89 -9.63,17.75 -9.63,28.44 0,9.39 2.78,18.14 7.56,25.49l-44.75 38.79c-5.48,-4.04 -12.23,-6.46 -19.55,-6.46 -18.24,0 -33.08,14.84 -33.08,33.08 0,18.24 14.84,33.08 33.08,33.08 18.24,0 33.08,-14.84 33.08,-33.08 0,-6.29 -1.8,-12.16 -4.86,-17.17l44.46 -38.54c8.27,7.29 19.11,11.72 30.97,11.72 10.8,0 20.75,-3.68 28.69,-9.83 0.26,0.45 0.57,0.88 0.96,1.27l48.3 48.53c-3.39,5.08 -5.38,11.18 -5.38,17.74 0,17.69 14.4,32.08 32.09,32.08 17.69,0 32.07,-14.39 32.07,-32.08 0,-17.69 -14.38,-32.08 -32.07,-32.08z"/>
  <g id="_1766579478992">
   <g>
    <g>
     <path fill="#F4F4F4" d="M1102.27 249.45c-6.51,0 -12.56,1.96 -17.62,5.3l-48.31 -48.54c-0.41,-0.41 -0.87,-0.73 -1.34,-1 5.97,-7.88 9.53,-17.69 9.53,-28.31 0,-15.13 -7.21,-28.59 -18.36,-37.18l19.9 -34.96c3.27,1.08 6.76,1.69 10.38,1.69 18.27,0 33.13,-14.86 33.13,-33.13 0,-18.26 -14.86,-33.12 -33.13,-33.12 -18.26,0 -33.12,14.86 -33.12,33.13 0,10.04 4.51,19.03 11.59,25.11l-19.88 34.92c-5.39,-2.17 -11.27,-3.38 -17.43,-3.38 -10.6,0 -20.39,3.55 -28.26,9.5 -0.1,-0.11 -0.17,-0.24 -0.28,-0.34l-27.22 -27.35c1.48,-2.9 2.33,-6.17 2.33,-9.64 0,-11.79 -9.6,-21.39 -21.39,-21.39 -11.79,0 -21.38,9.6 -21.38,21.39 0,11.79 9.59,21.38 21.38,21.38 3.66,0 7.11,-0.93 10.12,-2.55l27.08 27.2c0.1,0.11 0.23,0.19 0.34,0.28 -6.04,7.9 -9.64,17.76 -9.64,28.44 0,9.4 2.79,18.15 7.57,25.49l-44.75 38.79c-5.48,-4.04 -12.23,-6.46 -19.55,-6.46 -18.24,0 -33.08,14.84 -33.08,33.09 0,18.24 14.84,33.08 33.08,33.08 18.24,0 33.08,-14.84 33.08,-33.08 0,-6.29 -1.8,-12.16 -4.86,-17.18l44.45 -38.54c8.28,7.29 19.12,11.73 30.98,11.73 10.8,0 20.75,-3.68 28.69,-9.83 0.26,0.44 0.57,0.87 0.96,1.26l48.3 48.54c-3.39,5.08 -5.38,11.18 -5.38,17.73 0,17.69 14.4,32.09 32.09,32.09 17.68,0 32.07,-14.4 32.07,-32.09 0,-17.68 -14.38,-32.07 -32.07,-32.07z"/>
    </g>
   </g>
   <g>
   </g>
   <g>
   </g>
   <g>
   </g>
   <g>
   </g>
   <g>
   </g>
   <g>
   </g>
   <g>
   </g>
   <g>
   </g>
   <g>
   </g>
   <g>
   </g>
   <g>
   </g>
   <g>
   </g>
   <g>
   </g>
   <g>
   </g>
   <g>
   </g>
  </g>
  <path fill="#F4F4F4" d="M1102.27 249.45c-6.51,0 -12.56,1.96 -17.62,5.3l-48.31 -48.54c-0.41,-0.41 -0.87,-0.73 -1.34,-1 5.97,-7.88 9.53,-17.69 9.53,-28.31 0,-15.13 -7.21,-28.59 -18.36,-37.18l19.9 -34.96c3.27,1.08 6.76,1.69 10.38,1.69 18.27,0 33.13,-14.86 33.13,-33.13 0,-18.26 -14.86,-33.12 -33.13,-33.12 -18.26,0 -33.12,14.86 -33.12,33.13 0,10.04 4.51,19.03 11.59,25.11l-19.88 34.92c-5.39,-2.17 -11.27,-3.38 -17.43,-3.38 -10.6,0 -20.39,3.55 -28.26,9.5 -0.1,-0.11 -0.17,-0.24 -0.28,-0.34l-27.22 -27.35c1.48,-2.9 2.33,-6.17 2.33,-9.64 0,-11.79 -9.6,-21.39 -21.39,-21.39 -11.79,0 -21.38,9.6 -21.38,21.39 0,11.79 9.59,21.38 21.38,21.38 3.66,0 7.11,-0.93 10.12,-2.55l27.08 27.2c0.1,0.11 0.23,0.19 0.34,0.28 -6.04,7.9 -9.64,17.76 -9.64,28.44 0,9.4 2.79,18.15 7.57,25.49l-44.75 38.79c-5.48,-4.04 -12.23,-6.46 -19.55,-6.46 -18.24,0 -33.08,14.84 -33.08,33.09 0,18.24 14.84,33.08 33.08,33.08 18.24,0 33.08,-14.84 33.08,-33.08 0,-6.29 -1.8,-12.16 -4.86,-17.18l44.45 -38.54c8.28,7.29 19.12,11.73 30.98,11.73 10.8,0 20.75,-3.68 28.69,-9.83 0.26,0.44 0.57,0.87 0.96,1.26l48.3 48.54c-3.39,5.08 -5.38,11.18 -5.38,17.73 0,17.69 14.4,32.09 32.09,32.09 17.68,0 32.07,-14.4 32.07,-32.09 0,-17.68 -14.38,-32.07 -32.07,-32.07z"/>
  <path fill="none" fill-rule="nonzero" d="M139.15 127.58l-46.91 0 0 43.42 46.91 0 0 -17.53 -24.26 0 0 -7.66 34.25 0 0 19.37c0,5.47 -0.99,9.21 -2.94,11.2 -1.98,1.99 -5.69,2.98 -11.13,2.98l-38.74 0c-5.5,0 -9.21,-1.01 -11.15,-3 -1.95,-2.01 -2.92,-5.75 -2.92,-11.18l0 -31.57c0,-5.43 0.97,-9.15 2.92,-11.16 1.94,-2 5.65,-3 11.15,-3l38.74 0c5.38,0 9.06,0.97 11.07,2.92 1.99,1.93 3,5.46 3,10.57l0 1.47 -9.99 1.99 0 -8.82zm34.58 51.78l0 -49.23 49.58 0 0 7.31 -40.29 0 0 12.66 24.27 0 0 7.32 -24.27 0 0 14.74 40.76 0 0 7.2 -50.05 0zm75.59 -7.43l41.1 0 0 -34.49 -41.1 0 0 34.49zm-9.29 -30.11c0,-4.51 0.85,-7.59 2.56,-9.23 1.7,-1.65 4.85,-2.46 9.52,-2.46l35.53 0c4.66,0 7.82,0.81 9.52,2.46 1.7,1.64 2.55,4.72 2.55,9.23l0 25.91c0,4.51 -0.83,7.57 -2.51,9.19 -1.69,1.63 -4.88,2.44 -9.56,2.44l-35.53 0c-4.72,0 -7.92,-0.81 -9.58,-2.42 -1.67,-1.6 -2.5,-4.66 -2.5,-9.21l0 -25.91zm76.85 37.54l29.04 -30.88 -29.49 -29.03 14.4 0 21 22.68 19.71 -22.68 12.49 0 -26.38 28.12 32.16 31.79 -14.39 0 -23.83 -25.56 -22.06 25.56 -12.65 0zm185.89 -51.78l-42.38 0 0 16.72 37.73 0c5.35,0 9,0.98 10.98,2.94 1.97,1.97 2.96,5.71 2.96,11.18l0 6.74c0,5.53 -0.97,9.29 -2.9,11.24 -1.94,1.97 -5.62,2.96 -11.04,2.96l-34.96 0c-5.42,0 -9.12,-0.99 -11.09,-2.98 -1.96,-1.99 -2.94,-5.73 -2.94,-11.22l0 -1.65 9.28 -2.15 0 9.64 44.59 0 0 -18 -37.62 0c-5.44,0 -9.11,-0.98 -11.05,-2.98 -1.91,-1.97 -2.88,-5.71 -2.88,-11.2l0 -5.21c0,-5.47 0.97,-9.21 2.88,-11.18 1.94,-2 5.61,-2.98 11.05,-2.98l31.89 0c5.34,0 9.02,0.97 11.05,2.92 2.03,1.93 3.04,5.34 3.04,10.22l0 1.26 -8.59 2.43 0 -8.7zm72.78 9.75l-28.1 0 0 15.56 28.1 0c2.09,0 3.54,-0.35 4.36,-1.05 0.81,-0.69 1.21,-1.91 1.21,-3.62l0 -6.23c0,-1.7 -0.4,-2.92 -1.2,-3.62 -0.79,-0.69 -2.24,-1.04 -4.37,-1.04zm-37.39 42.03l0 -49.23 41.61 0c3.81,0 6.56,0.74 8.24,2.21 1.69,1.47 2.52,3.9 2.52,7.31l0 11.03c0,3.31 -0.83,5.73 -2.52,7.2 -1.68,1.47 -4.43,2.21 -8.24,2.21l-32.32 0 0 19.27 -9.29 0zm56.57 0l28.45 -49.23 8.49 0 29.13 49.23 -10.09 0 -6.4 -11.49 -34 0 -6.29 11.49 -9.29 0zm19.49 -18.58l26.12 0 -13.08 -23.43 -13.04 23.43zm78.66 -23.34l0 41.92 -9.29 0 0 -41.92 -23.22 0 0 -7.31 55.85 0 0 7.31 -23.34 0zm46.31 41.92l-9.29 0 0 -49.11 9.29 0 0 49.11zm14.51 0l28.45 -49.23 8.5 0 29.12 49.23 -10.08 0 -6.41 -11.49 -34 0 -6.29 11.49 -9.29 0zm19.49 -18.58l26.13 0 -13.09 -23.43 -13.04 23.43zm61.33 18.58l0 -49.23 9.29 0 0 41.8 38.31 0 0 7.43 -47.6 0z"/>
  <use transform="scale(2.78694 2.78694)" x="23.23" y="78.7" width="295.04" height="2.36" xlink:href="#Symbol1"/>
 </g>
</svg>
