<svg id="Capa_1" enable-background="new 0 0 512 512" height="512" viewBox="0 0 512 512" width="512" xmlns="http://www.w3.org/2000/svg"><g><path d="m181 272c57.897 0 105-47.103 105-105s-47.103-105-105-105-105 47.103-105 105 47.103 105 105 105zm-73.491-90h28.879c.946 18.186 3.643 35.798 8.228 50.552-18.813-10.484-32.677-28.818-37.107-50.552zm88.059-30h-29.137c1.909-32.549 9.728-52.49 14.568-58.638 4.841 6.148 12.661 26.089 14.569 58.638zm0 30c-1.909 32.549-9.728 52.49-14.568 58.638-4.84-6.148-12.66-26.089-14.568-58.638zm21.817 50.552c4.585-14.754 7.281-32.366 8.228-50.552h28.879c-4.431 21.734-18.295 40.068-37.107 50.552zm37.106-80.552h-28.879c-.946-18.186-3.643-35.798-8.228-50.552 18.813 10.484 32.677 28.818 37.107 50.552zm-109.876-50.552c-4.585 14.754-7.281 32.366-8.228 50.552h-28.879c4.431-21.734 18.295-40.068 37.107-50.552z"/><path d="m166 302h30v30h-30z"/><path d="m106 302h30v30h-30z"/><path d="m226 302h30v30h-30z"/><path d="m391 302c-16.095 0-31.353 3.645-45 10.145v-312.145h-330v452h280.145c16.882 35.443 53.053 60 94.855 60 57.897 0 105-47.103 105-105s-47.103-105-105-105zm-345 120v-392h270v303.596c-18.546 18.946-30 44.86-30 73.404 0 5.093.372 10.099 1.076 15zm345 60c-41.355 0-75-33.645-75-75s33.645-75 75-75 75 33.645 75 75-33.645 75-75 75z"/><path d="m383.5 400.787-11.894-11.894-21.212 21.214 33.106 33.106 55.606-55.606-21.212-21.214z"/></g></svg>