<svg id="Capa_1" enable-background="new 0 0 512 512" height="512" viewBox="0 0 512 512" width="512" xmlns="http://www.w3.org/2000/svg"><g><path d="m413.5 194.902v-73.902c0-9.777-6.27-18.114-15-21.21v-40.302l-25.018-59.488h-234.964l-25.018 59.488v40.302c-8.729 3.096-15 11.432-15 21.21v73.902l-22.5 74.999v98.599c0 12.407 10.093 22.5 22.5 22.5h37.5v22.5c0 12.406 10.093 22.5 22.5 22.5h33.75v15c0 12.406 10.094 22.5 22.5 22.5h15v38.5h60v-38.5h15c12.407 0 22.5-10.094 22.5-22.5v-15h26.25c12.407 0 22.5-10.093 22.5-22.5v-22.5h37.5c12.407 0 22.5-10.093 22.5-22.5v-22.5h-15v22.5c0 4.136-3.364 7.5-7.5 7.5h-37.5v-75c0-12.407-10.093-22.5-22.5-22.5h-30v-165h67.5c4.135 0 7.5 3.364 7.5 7.5v76.104l22.5 74.999v28.897h15v-31.099zm-315 181.098c-4.136 0-7.5-3.364-7.5-7.5v-96.398l22.5-74.999v-76.103c0-4.136 3.364-7.5 7.5-7.5h67.5v165h-30c-12.407 0-22.5 10.093-22.5 22.5v75zm210-142.5h-105v-125l18.75-25h67.501l18.75 25v125zm-33.75 263.5h-30v-23.5h30zm37.5-46c0 4.136-3.364 7.5-7.5 7.5h-90c-4.136 0-7.5-3.364-7.5-7.5v-15h105zm48.75-150v112.5c0 4.135-3.364 7.5-7.5 7.5h-195c-4.136 0-7.5-3.364-7.5-7.5v-112.5c0-4.136 3.364-7.5 7.5-7.5h195c4.136 0 7.5 3.364 7.5 7.5zm-157.5-22.5v-30h105v30zm116.25-180-22.5-30h-82.5l-22.5 30h-18.75v-53.5h30v-15h-45v68.5h-30v-35.986l19.981-47.514h215.037l19.982 47.514v35.986h-30v-68.5h-135v15h120v53.5z"/><path d="m421 316h15v15h-15z"/><path d="m256 121c-20.678 0-37.5 16.823-37.5 37.5s16.822 37.5 37.5 37.5 37.5-16.822 37.5-37.5-16.822-37.5-37.5-37.5zm0 60c-12.407 0-22.5-10.093-22.5-22.5s10.093-22.5 22.5-22.5 22.5 10.094 22.5 22.5-10.093 22.5-22.5 22.5z"/><path d="m128.5 203.502h45v15h-45z"/><path d="m338.5 203.502h45v15h-45z"/><path d="m368.5 158.5h15v15h-15z"/><path d="m368.5 128.5h15v15h-15z"/><path d="m278.5 308.499h-112.5v97.501h112.5zm-15 82.501h-82.5v-67.501h82.5z"/><path d="m293.5 319.75h15v15h-15z"/><path d="m293.5 349.75h15v15h-15z"/><path d="m293.5 379.75h15v15h-15z"/><path d="m323.5 379.75h15v15h-15z"/><path d="m323.5 319.75h15v15h-15z"/><path d="m323.5 349.75h15v15h-15z"/></g></svg>